<svg xmlns="http://www.w3.org/2000/svg" width="680" height="340" viewBox="0 0 680 340" font-family="-apple-system, Segoe UI, Roboto, sans-serif">
  <defs>
    <radialGradient id="lit" cx="38%" cy="32%" r="75%">
      <stop offset="0%" stop-color="#fde9c8"/>
      <stop offset="45%" stop-color="#d9a679"/>
      <stop offset="100%" stop-color="#5b3b2e"/>
    </radialGradient>
    <filter id="grainHi" x="0" y="0" width="100%" height="100%">
      <feTurbulence type="fractalNoise" baseFrequency="0.45" numOctaves="2" seed="11" result="t"/>
      <feColorMatrix in="t" type="matrix" values="0 0 0 0 0  0 0 0 0 0  0 0 0 0 0  1 1 1 0 -1.05"/>
    </filter>
    <filter id="grainLo" x="0" y="0" width="100%" height="100%">
      <feTurbulence type="fractalNoise" baseFrequency="0.9" numOctaves="1" seed="4" result="t"/>
      <feColorMatrix in="t" type="matrix" values="0 0 0 0 0  0 0 0 0 0  0 0 0 0 0  1 1 1 0 -1.35"/>
    </filter>
    <clipPath id="cL"><rect x="70" y="80" width="230" height="190" rx="6"/></clipPath>
    <clipPath id="cR"><rect x="380" y="80" width="230" height="190" rx="6"/></clipPath>
  </defs>
  <rect x="0.5" y="0.5" width="679" height="339" rx="8" fill="#ffffff" stroke="#e2e8f0"/>
  <text x="20" y="28" font-size="14" font-weight="700" fill="#0f172a">⑤ Equal low sample count — ReSTIR spatial reuse cuts direct-lighting variance</text>
  <text x="340" y="52" text-anchor="middle" font-size="11" fill="#64748b">same scene, same spp, same shadow-ray budget per pixel</text>

  <!-- NEE patch -->
  <rect x="70" y="80" width="230" height="190" rx="6" fill="url(#lit)"/>
  <rect x="70" y="80" width="230" height="190" fill="#000000" opacity="0.62" filter="url(#grainHi)" clip-path="url(#cL)"/>
  <rect x="70" y="80" width="230" height="190" rx="6" fill="none" stroke="#94a3b8"/>
  <text x="185" y="292" text-anchor="middle" font-size="12" font-weight="700" fill="#0f172a">stock NEE</text>
  <text x="185" y="310" text-anchor="middle" font-size="10.5" fill="#64748b">1 light sample / pixel — high variance</text>

  <!-- ReSTIR patch -->
  <rect x="380" y="80" width="230" height="190" rx="6" fill="url(#lit)"/>
  <rect x="380" y="80" width="230" height="190" fill="#000000" opacity="0.5" filter="url(#grainLo)" clip-path="url(#cR)"/>
  <rect x="380" y="80" width="230" height="190" rx="6" fill="none" stroke="#94a3b8"/>
  <text x="495" y="292" text-anchor="middle" font-size="12" font-weight="700" fill="#0f172a">ReSTIR DI (spatial)</text>
  <text x="495" y="310" text-anchor="middle" font-size="10.5" fill="#64748b">M_light=8 + k reused neighbours — ~30% lower RMSE</text>

  <!-- arrow between -->
  <text x="340" y="180" text-anchor="middle" font-size="22" fill="#10b981">→</text>
</svg>
