<svg xmlns="http://www.w3.org/2000/svg" viewBox="0 0 520 300" font-family="-apple-system, sans-serif" font-size="11">
  <style>text{fill:var(--fg,#222)} .axis{stroke:var(--muted,#888);stroke-width:1} .bar{fill:var(--accent,#3b7dd8)} .curve{fill:none;stroke-width:1.8}</style>
  <text x="260" y="18" text-anchor="middle" font-weight="600">Equal-variance time — cornell</text>
  <text x="14" y="135" text-anchor="middle" transform="rotate(-90 14 135)">s to target var</text>
  <line class="axis" x1="56" y1="34" x2="56" y2="236"/>
  <line class="axis" x1="56" y1="236" x2="504" y2="236"/>
  <rect class="bar" x="62.7" y="233.9" width="31.4" height="2.1"><title>bsdf|V1/E0/fp32: 6.987e-01</title></rect>
  <text x="78.4" y="250" text-anchor="end" transform="rotate(-35 78.4 250)">bsdf|V1/E0/fp32</text>
  <text x="78.4" y="230.9" text-anchor="middle" font-size="9">6.99e-01</text>
  <rect class="bar" x="107.5" y="233.8" width="31.4" height="2.2"><title>bsdf,env|V1/E0/fp32: 7.112e-01</title></rect>
  <text x="123.2" y="250" text-anchor="end" transform="rotate(-35 123.2 250)">bsdf,env|V1/E0/fp32</text>
  <text x="123.2" y="230.8" text-anchor="middle" font-size="9">7.11e-01</text>
  <rect class="bar" x="152.3" y="167.7" width="31.4" height="68.3"><title>bsdf,neural|V1/E0/fp32: 2.259e+01</title></rect>
  <text x="168.0" y="250" text-anchor="end" transform="rotate(-35 168.0 250)">bsdf,neural|V1/E0/fp32</text>
  <text x="168.0" y="164.7" text-anchor="middle" font-size="9">2.26e+01</text>
  <rect class="bar" x="197.1" y="34.0" width="31.4" height="202.0"><title>bsdf,neural|V1/E1/fp32: 6.676e+01</title></rect>
  <text x="212.8" y="250" text-anchor="end" transform="rotate(-35 212.8 250)">bsdf,neural|V1/E1/fp32</text>
  <text x="212.8" y="31.0" text-anchor="middle" font-size="9">6.68e+01</text>
  <rect class="bar" x="241.9" y="95.9" width="31.4" height="140.1"><title>bsdf,neural|V1/E3/fp32: 4.632e+01</title></rect>
  <text x="257.6" y="250" text-anchor="end" transform="rotate(-35 257.6 250)">bsdf,neural|V1/E3/fp32</text>
  <text x="257.6" y="92.9" text-anchor="middle" font-size="9">4.63e+01</text>
  <rect class="bar" x="286.7" y="181.6" width="31.4" height="54.4"><title>neural|V1/E0/fp32: 1.798e+01</title></rect>
  <text x="302.4" y="250" text-anchor="end" transform="rotate(-35 302.4 250)">neural|V1/E0/fp32</text>
  <text x="302.4" y="178.6" text-anchor="middle" font-size="9">1.80e+01</text>
  <rect class="bar" x="331.5" y="77.8" width="31.4" height="158.2"><title>neural|V1/E1/fp32: 5.230e+01</title></rect>
  <text x="347.2" y="250" text-anchor="end" transform="rotate(-35 347.2 250)">neural|V1/E1/fp32</text>
  <text x="347.2" y="74.8" text-anchor="middle" font-size="9">5.23e+01</text>
  <rect class="bar" x="376.3" y="130.4" width="31.4" height="105.6"><title>neural|V1/E3/fp32: 3.492e+01</title></rect>
  <text x="392.0" y="250" text-anchor="end" transform="rotate(-35 392.0 250)">neural|V1/E3/fp32</text>
  <text x="392.0" y="127.4" text-anchor="middle" font-size="9">3.49e+01</text>
  <rect class="bar" x="421.1" y="233.6" width="31.4" height="2.4"><title>bsdf,env|V1/E0/fp32+restir-di: 8.002e-01</title></rect>
  <text x="436.8" y="250" text-anchor="end" transform="rotate(-35 436.8 250)">bsdf,env|V1/E0/fp32+restir-di</text>
  <text x="436.8" y="230.6" text-anchor="middle" font-size="9">8.00e-01</text>
  <rect class="bar" x="465.9" y="200.2" width="31.4" height="35.8"><title>bsdf,neural|V1/E1/fp16: 1.182e+01</title></rect>
  <text x="481.6" y="250" text-anchor="end" transform="rotate(-35 481.6 250)">bsdf,neural|V1/E1/fp16</text>
  <text x="481.6" y="197.2" text-anchor="middle" font-size="9">1.18e+01</text>
</svg>
