<svg xmlns="http://www.w3.org/2000/svg" viewBox="0 0 560 320" font-family="-apple-system, sans-serif" font-size="11">
  <style>text{fill:var(--fg,#222)} .axis{stroke:var(--muted,#888);stroke-width:1} .bar{fill:var(--accent,#3b7dd8)} .curve{fill:none;stroke-width:1.8}</style>
  <text x="280" y="18" text-anchor="middle" font-weight="600">Variance vs spp — cornell</text>
  <line class="axis" x1="60" y1="34" x2="60" y2="274"/>
  <line class="axis" x1="60" y1="274" x2="450" y2="274"/>
  <text x="255" y="312" text-anchor="middle">spp (log10)</text>
  <text x="16" y="154" text-anchor="middle" transform="rotate(-90 16 154)">MSE vs ref (log10)</text>
  <polyline class="curve" stroke="#3b7dd8" points="60.0,34.6 255.0,138.2 450.0,273.1"/>
  <circle cx="60.0" cy="34.6" r="2.4" fill="#3b7dd8"/>
  <circle cx="255.0" cy="138.2" r="2.4" fill="#3b7dd8"/>
  <circle cx="450.0" cy="273.1" r="2.4" fill="#3b7dd8"/>
  <line x1="462" y1="48" x2="480" y2="48" stroke="#3b7dd8" stroke-width="2"/>
  <text x="484" y="51" font-size="10">bsdf|V1/E0/fp32</text>
  <polyline class="curve" stroke="#d8693b" points="60.0,34.4 255.0,138.1 450.0,273.1"/>
  <circle cx="60.0" cy="34.4" r="2.4" fill="#d8693b"/>
  <circle cx="255.0" cy="138.1" r="2.4" fill="#d8693b"/>
  <circle cx="450.0" cy="273.1" r="2.4" fill="#d8693b"/>
  <line x1="462" y1="64" x2="480" y2="64" stroke="#d8693b" stroke-width="2"/>
  <text x="484" y="67" font-size="10">bsdf,env|V1/E0/fp32</text>
  <polyline class="curve" stroke="#3bb273" points="60.0,34.7 255.0,138.3 450.0,273.3"/>
  <circle cx="60.0" cy="34.7" r="2.4" fill="#3bb273"/>
  <circle cx="255.0" cy="138.3" r="2.4" fill="#3bb273"/>
  <circle cx="450.0" cy="273.3" r="2.4" fill="#3bb273"/>
  <line x1="462" y1="80" x2="480" y2="80" stroke="#3bb273" stroke-width="2"/>
  <text x="484" y="83" font-size="10">bsdf,neural|V1/E0/fp32</text>
  <polyline class="curve" stroke="#9b59b6" points="60.0,34.7 255.0,138.3 450.0,273.3"/>
  <circle cx="60.0" cy="34.7" r="2.4" fill="#9b59b6"/>
  <circle cx="255.0" cy="138.3" r="2.4" fill="#9b59b6"/>
  <circle cx="450.0" cy="273.3" r="2.4" fill="#9b59b6"/>
  <line x1="462" y1="96" x2="480" y2="96" stroke="#9b59b6" stroke-width="2"/>
  <text x="484" y="99" font-size="10">bsdf,neural|V1/E1/fp32</text>
  <polyline class="curve" stroke="#d8b53b" points="60.0,34.7 255.0,138.3 450.0,273.3"/>
  <circle cx="60.0" cy="34.7" r="2.4" fill="#d8b53b"/>
  <circle cx="255.0" cy="138.3" r="2.4" fill="#d8b53b"/>
  <circle cx="450.0" cy="273.3" r="2.4" fill="#d8b53b"/>
  <line x1="462" y1="112" x2="480" y2="112" stroke="#d8b53b" stroke-width="2"/>
  <text x="484" y="115" font-size="10">bsdf,neural|V1/E3/fp32</text>
  <polyline class="curve" stroke="#555" points="60.0,34.2 255.0,138.6 450.0,274.0"/>
  <circle cx="60.0" cy="34.2" r="2.4" fill="#555"/>
  <circle cx="255.0" cy="138.6" r="2.4" fill="#555"/>
  <circle cx="450.0" cy="274.0" r="2.4" fill="#555"/>
  <line x1="462" y1="128" x2="480" y2="128" stroke="#555" stroke-width="2"/>
  <text x="484" y="131" font-size="10">neural|V1/E0/fp32</text>
  <polyline class="curve" stroke="#3b7dd8" points="60.0,34.2 255.0,138.6 450.0,274.0"/>
  <circle cx="60.0" cy="34.2" r="2.4" fill="#3b7dd8"/>
  <circle cx="255.0" cy="138.6" r="2.4" fill="#3b7dd8"/>
  <circle cx="450.0" cy="274.0" r="2.4" fill="#3b7dd8"/>
  <line x1="462" y1="144" x2="480" y2="144" stroke="#3b7dd8" stroke-width="2"/>
  <text x="484" y="147" font-size="10">neural|V1/E1/fp32</text>
  <polyline class="curve" stroke="#d8693b" points="60.0,34.2 255.0,138.6 450.0,274.0"/>
  <circle cx="60.0" cy="34.2" r="2.4" fill="#d8693b"/>
  <circle cx="255.0" cy="138.6" r="2.4" fill="#d8693b"/>
  <circle cx="450.0" cy="274.0" r="2.4" fill="#d8693b"/>
  <line x1="462" y1="160" x2="480" y2="160" stroke="#d8693b" stroke-width="2"/>
  <text x="484" y="163" font-size="10">neural|V1/E3/fp32</text>
  <polyline class="curve" stroke="#3bb273" points="60.0,34.0 255.0,138.0 450.0,272.9"/>
  <circle cx="60.0" cy="34.0" r="2.4" fill="#3bb273"/>
  <circle cx="255.0" cy="138.0" r="2.4" fill="#3bb273"/>
  <circle cx="450.0" cy="272.9" r="2.4" fill="#3bb273"/>
  <line x1="462" y1="176" x2="480" y2="176" stroke="#3bb273" stroke-width="2"/>
  <text x="484" y="179" font-size="10">bsdf,env|V1/E0/fp32+restir-di</text>
  <polyline class="curve" stroke="#9b59b6" points="60.0,34.7 255.0,138.3 450.0,273.3"/>
  <circle cx="60.0" cy="34.7" r="2.4" fill="#9b59b6"/>
  <circle cx="255.0" cy="138.3" r="2.4" fill="#9b59b6"/>
  <circle cx="450.0" cy="273.3" r="2.4" fill="#9b59b6"/>
  <line x1="462" y1="192" x2="480" y2="192" stroke="#9b59b6" stroke-width="2"/>
  <text x="484" y="195" font-size="10">bsdf,neural|V1/E1/fp16</text>
</svg>
